<svg xmlns="http://www.w3.org/2000/svg" version="1.2" viewBox="0 0 20 36" width="20" height="36"><style>.a{fill:#fff}</style><path d="m0 26.9v0.7l9.3 0.1v6.9c-3.7 0.2-3.9 0.3-3.9 0.7 0 0.5 0.2 0.6 4.3 0.6 2.6 0.1 4.5 0 4.7-0.2 0.2-0.1 0.3-0.4 0.2-0.6-0.1-0.3-0.6-0.4-2-0.4h-1.8v-7.1h9.2v-1.3h-20z"/><path d="m9.3 0.1c-1.8 0.3-2.8 0.6-3.4 0.9-0.7 0.3-1.6 1.1-2.2 1.7-0.6 0.6-1.3 1.7-1.6 2.4-0.2 0.7-0.5 1.8-0.6 2.3q-0.2 1 0.1 1.3c0.2 0.1 2.2 0.2 4.7 0.2l4.4-0.1 0.1-7.2c1.1 0.2 1.9 0.5 2.5 0.7 0.6 0.3 1.5 1 2.1 1.5 0.5 0.6 1.2 1.5 1.4 2 0.2 0.5 0.4 1.5 0.4 2.2 0 0.7-0.2 1.8-0.5 2.4-0.2 0.6-0.8 1.5-1.4 2-0.5 0.6-1.4 1.3-2 1.5-0.6 0.3-1.7 0.6-2.4 0.7-0.9 0.1-1.4 0.2-1.4 0.4-0.1 0.2-0.1 1.9-0.1 3.8l-0.1 3.4-9.3 0.1v1.3h20v-1.3h-9.2v-6.3c1.5-0.2 2.4-0.5 3-0.7 0.6-0.3 1.6-1 2.4-1.6 0.7-0.7 1.5-1.8 1.9-2.5 0.4-0.9 0.6-1.8 0.6-2.9 0-0.8-0.2-2.1-0.5-2.8-0.3-0.9-1-1.9-1.7-2.7-0.7-0.7-1.7-1.5-2.3-1.7-0.6-0.3-1.6-0.7-2.2-0.8l-1.2-0.2c-0.8-0.2-1.5 0-1.5 0z"/><path class="a" d="m7.8 1.8c-0.3 0.1-1.1 0.4-1.5 0.7-0.5 0.3-1.2 0.8-1.6 1.3-0.5 0.4-0.9 1.1-1.1 1.5-0.2 0.3-0.4 0.9-0.5 1.3l-0.2 0.8h6.6c0-5.5-0.1-5.8-0.5-5.8-0.2 0-0.8 0.1-1.2 0.2z"/></svg>