<?xml version="1.0" encoding="UTF-8" standalone="no"?>
<!DOCTYPE svg PUBLIC "-//W3C//DTD SVG 1.1//EN" "http://www.w3.org/Graphics/SVG/1.1/DTD/svg11.dtd">
<!-- Generated by Microsoft Visio, SVG Export ShuntDevice.svg Page-1 -->
<svg xmlns="http://www.w3.org/2000/svg" xmlns:xlink="http://www.w3.org/1999/xlink" xmlns:ev="http://www.w3.org/2001/xml-events"
		xmlns:v="http://schemas.microsoft.com/visio/2003/SVGExtensions/" width="0.214267in" height="0.4409in"
		viewBox="0 0 15.4273 31.7448" xml:space="preserve" color-interpolation-filters="sRGB" class="st4">
	<v:documentProperties v:langID="5129" v:metric="true" v:viewMarkup="false">
		<v:userDefs>
			<v:ud v:nameU="DisableSpdActionTags" v:prompt="" v:val="VT0(0):26"/>
		</v:userDefs>
	</v:documentProperties>

	<style type="text/css">
	<![CDATA[
		.st1 {stroke:#000000;stroke-linecap:round;stroke-linejoin:round;stroke-width:1}
		.st2 {stroke:#000000;stroke-linecap:round;stroke-linejoin:round;stroke-width:1.5}
		.st3 {stroke:#000000;stroke-width:1}
		.st4 {fill:none;fill-rule:evenodd;font-size:12px;overflow:visible;stroke-linecap:square;stroke-miterlimit:3}
	]]>
	</style>

	<g v:mID="0" v:index="1" v:groupContext="foregroundPage">
		<title>Page-1</title>
		<v:pageProperties v:drawingScale="0.0393701" v:pageScale="0.0393701" v:drawingUnits="24" v:shadowOffsetX="8.50394"
				v:shadowOffsetY="-8.50394"/>
		<g id="group120-1" transform="translate(1,-0.5)" v:mID="120" v:groupContext="group">
			<title>Sheet.120</title>
			<g id="shape79-2" v:mID="79" v:groupContext="shape" transform="translate(-24.9731,22.6952) rotate(-90)">
				<title>Sheet.79</title>
				<path d="M0 31.74 L5.17 31.74" class="st1"/>
			</g>
			<g id="shape80-5" v:mID="80" v:groupContext="shape" transform="translate(6.77164,44.0976) rotate(180)">
				<title>Sheet.80</title>
				<path d="M0 31.74 L5.67 31.74" class="st1"/>
			</g>
			<g id="shape81-8" v:mID="81" v:groupContext="shape" transform="translate(-19.3038,17.524) rotate(-90)">
				<title>Sheet.81</title>
				<path d="M0 26.08 A5.17118 5.66929 -180 0 0 5.17 31.74 A5.17118 5.66929 -180 0 0 10.34 26.08" class="st1"/>
			</g>
			<g id="shape82-11" v:mID="82" v:groupContext="shape" transform="translate(27.0456,29.4084) rotate(137.631)">
				<title>Sheet.82</title>
				<path d="M0 30.08 A5.42596 5.66929 -180 0 0 7.67 30.08" class="st1"/>
			</g>
			<g id="shape83-14" v:mID="83" v:groupContext="shape" transform="translate(-24.9731,12.3528) rotate(-90)">
				<title>Sheet.83</title>
				<path d="M0 31.74 L10.34 31.74" class="st1"/>
			</g>
			<g id="shape88-17" v:mID="88" v:groupContext="shape" transform="translate(3.84556,0)">
				<title>Sheet.88</title>
				<path d="M0 31.74 L5.67 31.74" class="st1"/>
			</g>
			<g id="shape111-20" v:mID="111" v:groupContext="shape" transform="translate(1.72912,-30.4948)">
				<title>Sheet.111</title>
				<path d="M0 31.74 L9.64 31.74" class="st2"/>
			</g>
			<g id="shape112-23" v:mID="112" v:groupContext="shape" transform="translate(0,-8.81143)">
				<title>Sheet.112</title>
				<path d="M0 31.74 L13.43 31.74" class="st3"/>
			</g>
			<g id="shape115-26" v:mID="115" v:groupContext="shape" transform="translate(-24.9731,31.1581) rotate(-90)">
				<title>Sheet.115</title>
				<path d="M0 31.74 L5.17 31.74" class="st1"/>
			</g>
			<g id="shape116-29" v:mID="116" v:groupContext="shape" transform="translate(0,-5.94686)">
				<title>Sheet.116</title>
				<path d="M0 31.74 L13.43 31.74" class="st3"/>
			</g>
		</g>
	</g>
</svg>
