<svg xmlns="http://www.w3.org/2000/svg" version="1.2" viewBox="0 0 30 37" width="30" height="37"><style>.a{fill:#fff}</style><path class="a" d="m1 0.3c0 0.1 0.1 0.2 0.3 0.1 0.1-0.1 0.2-0.2 0.2-0.3 0 0-0.1-0.1-0.2-0.1-0.2 0-0.3 0.1-0.3 0.3z"/><path d="m1.2 0.4c-0.2 0.2-0.3 3.1-0.2 13.8l0.1 13.5 13.6 0.1v7.9c-3.5 0-3.6 0-3.5 0.5 0 0.6 0.1 0.6 4.4 0.6 4.4 0 4.4 0 4.5-0.6 0.1-0.5 0-0.5-2-0.5h-2.1v-7.9l13.6-0.1c0.1-24.3 0.1-27.4-0.2-27.5-0.2-0.1-6.5-0.2-14.1-0.2-11.3 0-13.8 0.1-14.1 0.4z"/><path class="a" d="m2.3 13.9v12.4h26.1v-24.7h-26.1z"/><path d="m10.1 5.1c0 0.2 0.2 0.4 0.7 0.4 0.4 0.1 0.8 0.3 1 0.7 0.2 0.5 0.3 2.4 0.3 6.8 0 4.4-0.1 6.3-0.3 6.8-0.2 0.3-0.7 0.7-1.2 0.8-0.4 0.1-0.8 0.3-0.8 0.5 0 0.1 1.4 0.2 3.6 0.2 2.3 0 3.7-0.1 3.7-0.2 0-0.2-0.4-0.4-0.9-0.5-0.4-0.1-0.9-0.4-1.1-0.7-0.3-0.4-0.4-1.4-0.4-3.6v-3l5.3 0.1c0.8 1.7 1.2 2.2 1.4 2.2 0.2 0 0.3-0.8 0.3-3 0-2.5-0.1-3-0.4-3-0.2 0-0.4 0.4-0.5 0.7-0.1 0.4-0.4 1-0.6 1.2-0.4 0.4-0.9 0.5-3 0.5h-2.5v-6c1.1-0.3 2.5-0.3 3.8-0.2 1.3 0 2.6 0.2 2.9 0.4 0.3 0.2 0.7 0.7 0.9 1.2 0.1 0.5 0.4 0.9 0.6 0.9 0.3 0 0.4-0.4 0.4-1.8v-1.8c-12.3 0-13.2 0-13.2 0.4z"/></svg>